<svg id="Layer_1" data-name="Layer 1" xmlns="http://www.w3.org/2000/svg" viewBox="0 0 62.52 13.03"><defs><style>.cls-1{fill:#d85151;}</style></defs><title>logo</title><path class="cls-1" d="M0,3.8H2.17v.78a2.38,2.38,0,0,1,.9-.73,2.82,2.82,0,0,1,1.07-.19,2.68,2.68,0,0,1,1.11.21A2.22,2.22,0,0,1,6,4.48a1.71,1.71,0,0,1,.36.7,3.63,3.63,0,0,1,.1.88V10H4.32V6.85a3.35,3.35,0,0,0-.07-.74A.92.92,0,0,0,4,5.66a.82.82,0,0,0-.32-.2,1.21,1.21,0,0,0-.38-.06,1.07,1.07,0,0,0-.85.33,1.37,1.37,0,0,0-.29.94V10H0Z"/><path class="cls-1" d="M9.74,13H7.57V3.8H9.74v.68a2.29,2.29,0,0,1,1.9-.88,3,3,0,0,1,1.23.26,3.12,3.12,0,0,1,1,.7,3.2,3.2,0,0,1,.65,1,3.51,3.51,0,0,1,.23,1.28,3.41,3.41,0,0,1-.23,1.27,3.28,3.28,0,0,1-.65,1,3,3,0,0,1-2.2.95,2.56,2.56,0,0,1-1.92-.79ZM12.48,6.9a1.47,1.47,0,0,0-.1-.55,1.32,1.32,0,0,0-.29-.45,1.47,1.47,0,0,0-.45-.31,1.41,1.41,0,0,0-1.1,0,1.34,1.34,0,0,0-.44.3,1.52,1.52,0,0,0-.3.45,1.34,1.34,0,0,0-.11.55,1.36,1.36,0,0,0,.11.54,1.32,1.32,0,0,0,.3.44,1.52,1.52,0,0,0,.45.3,1.33,1.33,0,0,0,.55.11,1.35,1.35,0,0,0,.54-.11,1.33,1.33,0,0,0,.44-.3,1.55,1.55,0,0,0,.3-.44A1.27,1.27,0,0,0,12.48,6.9Z"/><path class="cls-1" d="M15.38,3.8h2.17v.76a2.81,2.81,0,0,1,2-.85,2.32,2.32,0,0,1,2.09,1.15A2.33,2.33,0,0,1,23.72,3.7a2.6,2.6,0,0,1,.82.13,1.68,1.68,0,0,1,.66.4,1.89,1.89,0,0,1,.44.7,3,3,0,0,1,.16,1v4H23.63v-3a3.68,3.68,0,0,0-.07-.77,1.22,1.22,0,0,0-.19-.47.64.64,0,0,0-.29-.23,1.06,1.06,0,0,0-.36-.06q-1,0-1,1.52v3H19.5v-3a4.13,4.13,0,0,0-.06-.77,1.42,1.42,0,0,0-.17-.49A.58.58,0,0,0,19,5.42a1.22,1.22,0,0,0-.42-.07,1.21,1.21,0,0,0-.38.06.68.68,0,0,0-.32.23,1.28,1.28,0,0,0-.22.48,3.32,3.32,0,0,0-.08.8v3H15.38Z"/><path class="cls-1" d="M31.33,5.8a2,2,0,0,0-1.14-.38,1.55,1.55,0,0,0-.58.11,1.44,1.44,0,0,0-.47.31,1.39,1.39,0,0,0-.32.47,1.54,1.54,0,0,0-.11.61,1.51,1.51,0,0,0,.11.59,1.45,1.45,0,0,0,.31.47,1.37,1.37,0,0,0,.47.31,1.6,1.6,0,0,0,.59.11A1.8,1.8,0,0,0,31.33,8V9.8a3.84,3.84,0,0,1-1.52.35,3.6,3.6,0,0,1-1.28-.23,3.2,3.2,0,0,1-1.81-1.67,3.11,3.11,0,0,1-.28-1.33,3.31,3.31,0,0,1,.26-1.34,3.21,3.21,0,0,1,.72-1,3.26,3.26,0,0,1,1.09-.68,3.67,3.67,0,0,1,1.35-.25,3.23,3.23,0,0,1,1.46.34Z"/><path class="cls-1" d="M32.27,0h2.17V4.58a2.38,2.38,0,0,1,.9-.73,2.82,2.82,0,0,1,1.07-.19,2.28,2.28,0,0,1,1.76.64A2.45,2.45,0,0,1,38.76,6V10H36.59V6.85a3.23,3.23,0,0,0-.07-.76.88.88,0,0,0-.24-.44,1,1,0,0,0-.7-.25,1.07,1.07,0,0,0-.85.33,1.37,1.37,0,0,0-.29.94V10H32.27Z"/><path class="cls-1" d="M44.39,3.8h2.18V10H44.39V9.28a2.28,2.28,0,0,1-1.88.88,3.06,3.06,0,0,1-1.24-.25,3,3,0,0,1-1-.69,3.18,3.18,0,0,1-.65-1,3.57,3.57,0,0,1-.23-1.31,3.47,3.47,0,0,1,.23-1.25,3.22,3.22,0,0,1,.64-1,3,3,0,0,1,2.22-1,2.51,2.51,0,0,1,1.91.8ZM41.65,6.86a1.44,1.44,0,0,0,.4,1,1.32,1.32,0,0,0,.44.3,1.42,1.42,0,0,0,.56.11,1.39,1.39,0,0,0,.55-.11,1.32,1.32,0,0,0,.44-.3,1.55,1.55,0,0,0,.3-.44,1.3,1.3,0,0,0,.11-.54,1.34,1.34,0,0,0-.11-.55,1.53,1.53,0,0,0-.3-.45,1.33,1.33,0,0,0-.44-.3,1.4,1.4,0,0,0-.55-.11,1.43,1.43,0,0,0-.56.11,1.33,1.33,0,0,0-.44.3,1.47,1.47,0,0,0-.29.44A1.31,1.31,0,0,0,41.65,6.86Z"/><path class="cls-1" d="M47.45,3.8h2.17v1A2.5,2.5,0,0,1,50.47,4a2.29,2.29,0,0,1,1.18-.29h.19l.23,0V5.77a2.06,2.06,0,0,0-.94-.22A1.4,1.4,0,0,0,50,6a2,2,0,0,0-.38,1.31V10H47.45Z"/><path class="cls-1" d="M55.55,5.62V10H53.38V5.62h-.72V3.8h.72V2h2.17V3.8h1.24V5.62Z"/><path class="cls-1" d="M61.59,5.39a2.54,2.54,0,0,0-1.18-.31.89.89,0,0,0-.49.12.37.37,0,0,0-.19.32.42.42,0,0,0,0,.17.31.31,0,0,0,.13.13,1.13,1.13,0,0,0,.3.11l.52.12a2.5,2.5,0,0,1,1.34.64,1.64,1.64,0,0,1,.44,1.18,2.15,2.15,0,0,1-.22,1,2.07,2.07,0,0,1-.6.73,2.85,2.85,0,0,1-.92.46,4.12,4.12,0,0,1-1.19.16,4.83,4.83,0,0,1-2.46-.71l.79-1.54a3.09,3.09,0,0,0,1.73.62.85.85,0,0,0,.49-.13.39.39,0,0,0,.19-.34.57.57,0,0,0,0-.2.33.33,0,0,0-.13-.14,1,1,0,0,0-.28-.12l-.49-.11A2.78,2.78,0,0,1,58,6.92a1.5,1.5,0,0,1-.4-1.11,2.19,2.19,0,0,1,.19-.93,1.93,1.93,0,0,1,.55-.7,2.59,2.59,0,0,1,.87-.44,3.87,3.87,0,0,1,1.13-.16,5.14,5.14,0,0,1,2,.4Z"/></svg>